stateDiagram-v2
    direction TB
    [*] --> q_restore: state._main_trie, state._storage_tries = state._snapshots.pop()
    q_restore --> q_check: not state._snapshots
    q_check --> q_clear: snapshots empty
    q_check --> q_transient: snapshots not empty
    q_clear --> q_transient: state.created_accounts.clear()
    q_transient --> [*]: transient_storage._tries = transient_storage._snapshots.pop()
